<?xml version="1.0" encoding="utf-8"?>
<!-- Generator: Adobe Illustrator 19.2.1, SVG Export Plug-In . SVG Version: 6.00 Build 0)  -->
<svg version="1.1" id="Layer_1" xmlns="http://www.w3.org/2000/svg" xmlns:xlink="http://www.w3.org/1999/xlink" x="0px" y="0px"
	 viewBox="0 0 960 363" style="enable-background:new 0 0 960 363;" xml:space="preserve">
<style type="text/css">
	.st0{fill:#00C752;}
</style>
<g>
	<path class="st0" d="M167.2,161.8"/>
	<path class="st0" d="M271.8,33c-9.9-4.1-21.3-5.2-32-3.3c-12.2,2.2-23.5,8.3-32.7,17.6c-8,8.1-14.9,19.3-20.8,31.5
		c-32.6-14-58.3-23.1-78.6-27.6c-28.1-6.2-47.1-3.9-58.1,7c-6.3,6.3-9.5,13.9-9.5,22.2c0.1,16.7,13.5,30.3,15,31.8
		c3.6,3.5,9.3,3.4,12.8-0.1c3.5-3.6,3.4-9.3-0.1-12.8c-2.5-2.4-9.6-11.1-9.6-19c0-3.5,1.3-6.4,4.2-9.3c4.2-4.2,14.9-8,41.4-2.2
		c19.2,4.2,43.9,12.9,75.3,26.5c-5.8,14.7-10.2,29.5-13.4,41.4l-5,21.4c0,0.2-4.4,24.5-11.7,48.2c-9.2,29.9-20,50.9-30.6,59.3
		c-15.3,12.2-35.2,17.1-49.4,12.2c-7.9-2.7-12.9-8.1-14.7-16c-2.5-10.4-1.8-20.6,1.9-30.2c2.7-7,6.5-11.7,6.5-11.7s6.1-6.8-1.4-13.1
		c-6.9-5.8-12,1.1-12,1.1c-0.8,1-20.6,23.7-12.5,58c3.3,13.9,12.7,24.1,26.4,28.9c5.6,1.9,11.7,2.9,17.9,2.9
		c16.3,0,33.9-6.3,48.6-18c13.7-10.9,26-33.9,36.6-68.2c5.7-18.6,9.3-35.4,10.8-42.9c0,0,5.9-26.4,6-26.4c1.5-5.5,3.8-13.8,5.8-20.1
		c2.2-7.1,4.6-13.7,6.9-19.8c17.6,6.7,32.4,9.2,44.5,9.2c17.9,0,30-5.4,37.1-10c12.9-8.4,20.5-21.6,20.5-35.3
		C297.7,52.2,287.8,39.5,271.8,33z M267.4,86.4c-7.1,4.6-16.6,7.1-27.5,7c-11.2-0.1-23.5-2.6-36.9-7.7c5.5-11.2,11.2-19.9,17-25.8
		c6.6-6.7,14.3-10.9,23-12.5c7.4-1.3,15.3-0.5,22,2.2c8.9,3.7,14.7,10.1,14.7,16.5C279.7,73.8,275.1,81.3,267.4,86.4z"/>
	<path class="st0" d="M934.9,287.1c0.3,8.3-2.8,16-8.9,22.4c-7.1,7.5-18,11.3-32.9,11.3c-7.3,0-15.7-0.9-25-2.7
		c-20.4-4-46.4-12.3-79.3-25.5c-5.6,12.3-12.2,23.7-19.9,32c-8.9,9.6-20,15.9-32.2,18.4c-3.9,0.8-7.8,1.2-11.8,1.2
		c-7,0-13.9-1.2-20.3-3.6c-16.2-6.1-26.4-18.6-26.8-32.5c-0.4-13.7,7-27.1,19.6-35.8c11.6-8,37.2-18.5,81.5-2.9
		c2.2-6.2,4.4-13,6.5-20.1c2.2-7.7,4.1-15,5.5-21.4c-5.7,4.2-12.1,7.2-18.9,7.7c-8.9,0.7-17.1-3.1-23.1-10.7
		c-14.4-18.4-3.7-44.4,4.1-63.4c1.8-4.5,3.6-6.2,4.7-9.7c1.5-4.7,6.7-7.3,11.4-5.8c4.7,1.6,7.3,6.7,5.8,11.4
		c-1.3,4.1-3.2,6.1-5.2,10.9c-6.5,15.7-14.5,35.3-6.6,45.4c2.9,3.7,5.5,4,7.4,3.8c5.6-0.4,14.8-6.7,20-16
		c6.9-12.5,11.1-30.1,13.3-41.1l0.5-2.8c0.9-4.9,5.6-8.1,10.5-7.2c4.9,0.9,8.1,5.6,7.2,10.5c-0.2,1-0.4,2-0.6,3.1l-8.6,45.7
		c-0.5,3-5.9,34.9-17.3,66.3c31.8,12.7,56.7,20.7,76,24.5c26.7,5.2,37.2,1.1,41.3-3.3c2.8-2.9,4-5.9,3.9-9.4
		c-0.2-7.8-7.4-16.3-10.1-18.8c-3.7-3.4-3.9-9.1-0.5-12.7c3.4-3.7,9.1-3.9,12.8-0.5C920.6,257.1,934.4,270.4,934.9,287.1
		 M755.7,312.3c5.7-6.1,11.2-14.9,16.3-26.3c-12.9-4.4-24.8-6.7-35.5-6.7c-0.5,0-1.1,0-1.6,0c-10.9,0.2-20.3,2.9-27.3,7.7
		c-7.6,5.2-12,12.9-11.8,20.5c0.2,6.4,6.1,12.7,15.1,16.1c6.8,2.6,14.7,3.2,22.1,1.7C741.6,323.6,749.3,319.2,755.7,312.3"/>
	<path class="st0" d="M591.5,227.8c-5.7,4.2-12.1,7.2-18.9,7.7c-8.9,0.7-17.1-3.1-23.1-10.7c-14.4-18.4-3.7-44.4,4.1-63.4
		c1.9-4.5,3.6-6.2,4.7-9.7c1.6-4.7,6.7-7.3,11.4-5.8c4.7,1.6,7.3,6.7,5.8,11.4c-1.3,4.1-3.2,6.1-5.2,10.9
		c-6.5,15.7-14.5,35.3-6.6,45.4c2.9,3.7,5.5,4,7.4,3.8c5.6-0.4,14.8-6.7,20-16c6.9-12.5,11.1-30.1,13.3-41.1l0.5-2.8
		c0.9-4.9,5.6-8.1,10.5-7.2c4.9,0.9,8.1,5.6,7.2,10.5c-0.2,1-0.4,2-0.6,3.1l-10.3,48.2L591.5,227.8z"/>
	<path class="st0" d="M512.7,168c-2.4,9.8-4,16.9-4.1,17.5c-0.2,1.3-3,16.4-8.3,33.7c-7.6,24.9-16.7,41.6-26.8,49.7
		c-10.8,8.6-23.9,13.3-36.1,13.3c-3.5,0-6.8-0.4-10.1-1.1c-4.8-1.2-7.8-6-6.7-10.9c1.2-4.8,6-7.8,10.9-6.7
		c9.2,2.2,21.3-1.2,30.8-8.7c7.1-5.6,14.4-20.1,20.8-40.7c5.1-16.7,7.8-31.7,7.8-31.8c0,0,0-0.1,0-0.1c0.1-0.6,2.8-14.8,8.2-31.8
		c7.5-23.5,16.2-40.5,25.9-50.4c6.9-7,15.4-11.6,24.6-13.2c8.1-1.5,16.7-0.6,24.2,2.5c12.4,5.1,20,13.8,20,24.8v1.3c0,5-4,9-9,9
		c-5,0-9-4-9-9c0-3.4-3.5-7.1-8.8-9.3c-7.8-3.2-19.5-3.1-29.1,6.7c-6,6.1-11.9,16.6-17.2,30.8C520.6,143.4,515.3,157.8,512.7,168z"
		/>
	<path class="st0" d="M361.5,144c5.5,7.2,7.6,18,6.4,32c-0.8,9.5-3,17.3-3,17.7c-0.1,0.5-3,10.5-9.7,20.5
		c-9.6,14.3-22.4,21.8-36.9,21.8c-0.5,0-0.9,0-1.4,0c-12.2-0.4-18.9-6.1-22.4-10.9c-10.2-14-4.9-36-3.8-40
		c0.5-2.3,2.7-12.6,8.5-23.1c9.1-16.7,22.5-26.1,38.5-27.4c1-0.1,2-0.1,2.9-0.1C351.8,134.3,358.1,139.6,361.5,144 M349.9,174.1
		c0.7-8.9-0.3-15.9-2.8-19.2c-1-1.3-2.5-2.6-6.4-2.6c-0.5,0-1,0-1.5,0.1c-9.8,0.8-17.8,6.7-23.9,17.7c-5.1,9.2-6.9,18.4-6.9,18.5
		c-0.1,0.3-0.1,0.5-0.2,0.9c0,0-1.3,4.7-1.7,10.5c-0.4,6.4,0.5,11.5,2.6,14.4c1,1.4,3,3.3,8.3,3.5c0.3,0,0.5,0,0.8,0
		c8.3,0,15.6-4.5,21.7-13.5c5.1-7.4,7.4-15,7.5-15.6C347.6,188.3,349.3,181.8,349.9,174.1"/>
	<path class="st0" d="M448.5,144c5.5,7.2,7.6,18,6.4,32c-0.8,9.5-2.9,17.3-3,17.7c-0.1,0.5-3,10.5-9.7,20.5
		c-9.6,14.3-22.4,21.8-37,21.8c-0.4,0-0.9,0-1.4,0c-12.2-0.4-18.9-6.1-22.4-10.9c-10.2-14-4.9-36-3.8-40c0.5-2.3,2.8-12.6,8.5-23.1
		c9.1-16.7,22.5-26.1,38.5-27.4c1-0.1,2-0.1,3-0.1C438.8,134.3,445.1,139.6,448.5,144 M437,174.1c0.7-8.9-0.3-15.9-2.8-19.2
		c-1-1.3-2.5-2.6-6.4-2.6c-0.5,0-1,0-1.5,0.1c-9.8,0.8-17.8,6.7-23.9,17.7c-5.1,9.2-6.9,18.4-6.9,18.5c-0.1,0.3-0.1,0.5-0.2,0.9
		c0,0-1.3,4.7-1.7,10.5c-0.4,6.4,0.5,11.5,2.6,14.4c1,1.4,3,3.3,8.4,3.5c0.3,0,0.5,0,0.8,0c8.3,0,15.6-4.5,21.7-13.5
		c5.1-7.4,7.4-15,7.5-15.6C434.7,188.3,436.4,181.8,437,174.1"/>
	<path class="st0" d="M274.1,143.9c5.5,7.2,7.6,18,6.4,32c-0.8,9.5-2.9,17.3-3,17.7c-0.1,0.4-3,10.5-9.7,20.4
		c-9.6,14.3-22.4,21.8-36.9,21.8c-0.4,0-0.9,0-1.4,0c-12.2-0.4-18.9-6.1-22.4-10.9c-10.2-14-4.9-36-3.8-40
		c0.5-2.3,2.7-12.6,8.5-23.1c9.1-16.6,22.5-26.1,38.5-27.4c1-0.1,2-0.1,2.9-0.1C264.4,134.2,270.7,139.4,274.1,143.9 M262.6,174
		c0.7-8.9-0.3-15.9-2.8-19.2c-1-1.3-2.5-2.6-6.4-2.6c-0.5,0-1,0-1.5,0.1c-9.8,0.8-17.8,6.7-23.9,17.7c-5.1,9.2-6.9,18.4-6.9,18.5
		c-0.1,0.3-0.1,0.6-0.2,0.9c0,0-1.3,4.7-1.7,10.5c-0.4,6.4,0.5,11.5,2.6,14.4c1,1.4,3,3.3,8.3,3.5c0.3,0,0.5,0,0.8,0
		c8.3,0,15.6-4.5,21.7-13.5c5.1-7.4,7.4-15,7.5-15.6C260.2,188.1,261.9,181.7,262.6,174"/>
	<path class="st0" d="M201.4,148.3c-5.4-0.2-7.3-0.5-7.3-0.5c-3.9-0.5-7.5-1.6-12.2-4c-0.4,1.7-4.9,1.7-8.5,2.9
		c-2.6-2.8-7.6-6.5-7.8-9.6c-2.5-1-6.2-2.2-10-2.2c-5,0-9.9,2-12.1,6c0,0.1-2.7,5.2-2.3,12.3c5.4,0.2,7.3,0.5,7.3,0.5
		c3.9,0.5,7.5,1.6,12.2,4c0.4-1.8,5.9-2.5,10-4.3c2.1,3.3,6.1,7.8,6.2,11.1c2.5,1,6.2,2.2,10,2.2c5,0,9.9-2,12.1-6
		C199.1,160.6,201.7,155.5,201.4,148.3z"/>
	<path class="st0" d="M538.4,148.3c-5.5-0.2-7.3-0.5-7.3-0.5c-3.9-0.5-7.5-1.6-12.2-4c-0.4,1.7-4.9,1.7-8.5,2.9
		c-2.6-2.8-6.4-5.2-6.5-8.4c-2.5-1-7.5-3.4-11.3-3.4c-5,0-9.9,2-12.1,6c0,0.1-2.7,5.2-2.3,12.3c5.4,0.2,7.3,0.5,7.3,0.5
		c3.9,0.5,7.5,1.6,12.2,4c0.4-1.8,5.9-2.5,10-4.3c2.1,3.3,4.8,6.5,5,9.8c2.5,1,7.5,3.4,11.3,3.4c5,0,9.9-2,12.1-6
		C536.2,160.6,538.8,155.5,538.4,148.3z"/>
	<g>
		<path class="st0" d="M483.1,90.8l-30.6,105.3c-0.5,1.4-4.3,11.7-1.7,16.1c0.7,1.2,1.9,2,3.3,2.1c0.3,0,0.7,0,1.2,0
			c1.5,0,4.3-0.1,8.4-0.3c0,3.7-0.7,14-8.4,19c-2.3,1.5-5.5,2.4-8.8,2.4c-5.9,0-11.1-2.4-14.3-6.7c-4-5.4-4.7-13.4-1.9-23.1
			c8-28.1,29.7-107.8,33.2-119.6c0,0,2.7-6.4,11.8-4.6C484.4,83.3,483.1,90.8,483.1,90.8z"/>
	</g>
	<g>
		<path class="st0" d="M694.2,90.8l-30.6,105.3c-0.5,1.4-4.3,11.7-1.7,16.1c0.7,1.2,1.9,2,3.3,2.1c0.3,0,0.7,0,1.2,0
			c1.5,0,4.3-0.1,8.4-0.3c0,3.7-0.7,14-8.4,19c-2.3,1.5-5.5,2.4-8.8,2.4c-5.9,0-11.1-2.4-14.3-6.7c-4-5.4-4.7-13.4-1.9-23.1
			c8-28.1,29.7-107.8,33.2-119.6c0,0,2.7-6.4,11.8-4.6C695.5,83.3,694.2,90.8,694.2,90.8z"/>
	</g>
	<g>
		<path class="st0" d="M614.8,194.9c-0.6,6.4-3.2,12.3-1.2,17.4c0.5,1.3,1.9,2,3.3,2.1c0.3,0,0.7,0,1.2,0c1.5,0,4.3-0.1,8.4-0.3
			c0,3.7-0.7,14-8.4,19c-2.3,1.5-5.5,2.4-8.8,2.4c-5.9,0-8.6-2.4-11.8-6.7c-4-5.4-2.2-13.4,0.6-23.1L614.8,194.9z"/>
	</g>
	<g>
		<path class="st0" d="M747.6,90.8L717,196.1c-0.5,1.4-4.3,11.7-1.7,16.1c0.7,1.2,1.9,2,3.3,2.1c0.3,0,0.7,0,1.2,0
			c1.5,0,4.3-0.1,8.4-0.3c0,3.7-0.7,14-8.4,19c-2.3,1.5-5.5,2.4-8.8,2.4c-5.9,0-11.1-2.4-14.3-6.7c-4-5.4-4.7-13.4-1.9-23.1
			c8-28.1,29.7-107.8,33.2-119.6c0,0,2.7-6.4,11.8-4.6C748.9,83.3,747.6,90.8,747.6,90.8z"/>
	</g>
</g>
</svg>
